<mxfile host="app.diagrams.net" agent="Mozilla/5.0 (Windows NT 10.0; Win64; x64) AppleWebKit/537.36 (KHTML, like Gecko) Chrome/127.0.0.0 Safari/537.36" version="24.7.6">
  <diagram id="prtHgNgQTEPvFCAcTncT" name="Page-1">
    <mxGraphModel dx="2000" dy="1793" grid="1" gridSize="10" guides="1" tooltips="1" connect="1" arrows="1" fold="1" page="1" pageScale="1" pageWidth="827" pageHeight="1169" math="0" shadow="0">
      <root>
        <mxCell id="0" />
        <mxCell id="1" parent="0" />
        <mxCell id="dNxyNK7c78bLwvsdeMH5-11" value="PROJECT" style="swimlane;html=1;startSize=20;horizontal=1;containerType=tree;glass=0;fillColor=#f8cecc;strokeColor=#b85450;gradientColor=none;" parent="1" vertex="1">
          <mxGeometry x="-493" y="-60" width="3020" height="1270" as="geometry" />
        </mxCell>
        <UserObject label="HEALTHCARE" name="Tessa Miller" position="CFO" location="Office 1" email="me@example.com" placeholders="1" id="dNxyNK7c78bLwvsdeMH5-12">
          <mxCell style="label;image=https://cdn3.iconfinder.com/data/icons/user-avatars-1/512/users-3-128.png;whiteSpace=wrap;html=1;rounded=0;glass=0;treeMoving=1;treeFolding=1;fillColor=#d80073;strokeColor=#A50040;fontStyle=1;fontColor=#ffffff;" parent="dNxyNK7c78bLwvsdeMH5-11" vertex="1">
            <mxGeometry x="1050" y="40" width="180" height="70" as="geometry" />
          </mxCell>
        </UserObject>
        <UserObject label="HOSPITAL&lt;div&gt;MANAGEMENT&lt;/div&gt;" name="Evan Valet" position="HR Director" location="Office 4" email="me@example.com" placeholders="1" link="https://www.draw.io" id="dNxyNK7c78bLwvsdeMH5-16">
          <mxCell style="label;image=https://cdn3.iconfinder.com/data/icons/user-avatars-1/512/users-9-2-128.png;whiteSpace=wrap;html=1;rounded=0;glass=0;treeFolding=1;treeMoving=1;fillColor=#d80073;strokeColor=#A50040;fontColor=#ffffff;" parent="dNxyNK7c78bLwvsdeMH5-11" vertex="1">
            <mxGeometry x="620" y="180" width="180" height="80" as="geometry" />
          </mxCell>
        </UserObject>
        <mxCell id="dNxyNK7c78bLwvsdeMH5-17" value="" style="endArrow=blockThin;endFill=1;fontSize=11;edgeStyle=elbowEdgeStyle;elbow=vertical;rounded=0;exitX=0.5;exitY=1;exitDx=0;exitDy=0;entryX=0.5;entryY=0;entryDx=0;entryDy=0;" parent="dNxyNK7c78bLwvsdeMH5-11" source="dNxyNK7c78bLwvsdeMH5-12" target="Rqalgy3OQGHP9HRHZ3IH-4" edge="1">
          <mxGeometry relative="1" as="geometry">
            <mxPoint x="750" y="180" as="targetPoint" />
            <Array as="points">
              <mxPoint x="1290" y="150" />
            </Array>
          </mxGeometry>
        </mxCell>
        <UserObject label="EMERGENCY&lt;div&gt;CARE&lt;/div&gt;" name="Alison Donovan" position="System Admin" location="Office 3" email="me@example.com" placeholders="1" link="https://www.draw.io" id="dNxyNK7c78bLwvsdeMH5-18">
          <mxCell style="label;image=https://cdn3.iconfinder.com/data/icons/user-avatars-1/512/users-2-128.png;whiteSpace=wrap;html=1;rounded=0;glass=0;fillColor=#f8cecc;strokeColor=#b85450;" parent="dNxyNK7c78bLwvsdeMH5-11" vertex="1">
            <mxGeometry x="840" y="180" width="180" height="80" as="geometry" />
          </mxCell>
        </UserObject>
        <UserObject label="IT&lt;div&gt;DEPARTMENT&lt;/div&gt;" name="Alison Donovan" position="System Admin" location="Office 3" email="me@example.com" placeholders="1" link="https://www.draw.io" id="Rqalgy3OQGHP9HRHZ3IH-3">
          <mxCell style="label;image=https://cdn3.iconfinder.com/data/icons/user-avatars-1/512/users-2-128.png;whiteSpace=wrap;html=1;rounded=0;glass=0;fillColor=#f8cecc;strokeColor=#b85450;" vertex="1" parent="dNxyNK7c78bLwvsdeMH5-11">
            <mxGeometry x="1050" y="180" width="180" height="80" as="geometry" />
          </mxCell>
        </UserObject>
        <UserObject label="CUSTOMER&lt;div&gt;SUPPORT&lt;/div&gt;" name="Alison Donovan" position="System Admin" location="Office 3" email="me@example.com" placeholders="1" link="https://www.draw.io" id="Rqalgy3OQGHP9HRHZ3IH-2">
          <mxCell style="label;image=https://cdn3.iconfinder.com/data/icons/user-avatars-1/512/users-2-128.png;whiteSpace=wrap;html=1;rounded=0;glass=0;fillColor=#f8cecc;strokeColor=#b85450;" vertex="1" parent="dNxyNK7c78bLwvsdeMH5-11">
            <mxGeometry x="1270" y="180" width="180" height="80" as="geometry" />
          </mxCell>
        </UserObject>
        <UserObject label="INFRASTRUCTURE" name="Alison Donovan" position="System Admin" location="Office 3" email="me@example.com" placeholders="1" link="https://www.draw.io" id="Rqalgy3OQGHP9HRHZ3IH-4">
          <mxCell style="label;image=https://cdn3.iconfinder.com/data/icons/user-avatars-1/512/users-2-128.png;whiteSpace=wrap;html=1;rounded=0;glass=0;fillColor=#f8cecc;strokeColor=#b85450;" vertex="1" parent="dNxyNK7c78bLwvsdeMH5-11">
            <mxGeometry x="1490" y="180" width="180" height="80" as="geometry" />
          </mxCell>
        </UserObject>
        <mxCell id="Rqalgy3OQGHP9HRHZ3IH-15" value="" style="endArrow=blockThin;endFill=1;fontSize=11;edgeStyle=elbowEdgeStyle;elbow=vertical;rounded=0;entryX=0.556;entryY=-0.031;entryDx=0;entryDy=0;entryPerimeter=0;" edge="1" parent="dNxyNK7c78bLwvsdeMH5-11" target="dNxyNK7c78bLwvsdeMH5-16">
          <mxGeometry relative="1" as="geometry">
            <mxPoint x="720" y="150" as="sourcePoint" />
            <mxPoint x="720" y="170" as="targetPoint" />
            <Array as="points">
              <mxPoint x="990" y="150" />
            </Array>
          </mxGeometry>
        </mxCell>
        <mxCell id="Rqalgy3OQGHP9HRHZ3IH-16" value="Text" style="edgeLabel;html=1;align=center;verticalAlign=middle;resizable=0;points=[];" vertex="1" connectable="0" parent="Rqalgy3OQGHP9HRHZ3IH-15">
          <mxGeometry x="-0.3385" y="2" relative="1" as="geometry">
            <mxPoint as="offset" />
          </mxGeometry>
        </mxCell>
        <mxCell id="Rqalgy3OQGHP9HRHZ3IH-19" value="" style="endArrow=blockThin;endFill=1;fontSize=11;edgeStyle=elbowEdgeStyle;elbow=vertical;rounded=0;" edge="1" parent="dNxyNK7c78bLwvsdeMH5-11" target="Rqalgy3OQGHP9HRHZ3IH-20">
          <mxGeometry relative="1" as="geometry">
            <mxPoint x="690" y="310" as="sourcePoint" />
          </mxGeometry>
        </mxCell>
        <UserObject label="PRIMARY CARE" name="Edward Morrison" position="Brand Manager" location="Office 2" email="me@example.com" placeholders="1" link="https://www.draw.io" id="Rqalgy3OQGHP9HRHZ3IH-20">
          <mxCell style="label;image=https://cdn3.iconfinder.com/data/icons/user-avatars-1/512/users-10-3-128.png;whiteSpace=wrap;html=1;rounded=0;glass=0;treeFolding=1;treeMoving=1;fillColor=#f8cecc;strokeColor=#b85450;" vertex="1" parent="dNxyNK7c78bLwvsdeMH5-11">
            <mxGeometry x="50" y="370" width="180" height="80" as="geometry" />
          </mxCell>
        </UserObject>
        <mxCell id="Rqalgy3OQGHP9HRHZ3IH-21" value="" style="endArrow=blockThin;endFill=1;fontSize=11;edgeStyle=elbowEdgeStyle;elbow=vertical;rounded=0;" edge="1" parent="dNxyNK7c78bLwvsdeMH5-11" target="Rqalgy3OQGHP9HRHZ3IH-23">
          <mxGeometry relative="1" as="geometry">
            <mxPoint x="690" y="310" as="sourcePoint" />
            <Array as="points">
              <mxPoint x="580" y="340" />
            </Array>
          </mxGeometry>
        </mxCell>
        <mxCell id="Rqalgy3OQGHP9HRHZ3IH-22" value="Text" style="edgeLabel;html=1;align=center;verticalAlign=middle;resizable=0;points=[];" vertex="1" connectable="0" parent="Rqalgy3OQGHP9HRHZ3IH-21">
          <mxGeometry x="-0.3385" y="2" relative="1" as="geometry">
            <mxPoint as="offset" />
          </mxGeometry>
        </mxCell>
        <UserObject label="SECONDARY CARE" name="Evan Valet" position="HR Director" location="Office 4" email="me@example.com" placeholders="1" link="https://www.draw.io" id="Rqalgy3OQGHP9HRHZ3IH-23">
          <mxCell style="label;image=https://cdn3.iconfinder.com/data/icons/user-avatars-1/512/users-9-2-128.png;whiteSpace=wrap;html=1;rounded=0;glass=0;treeFolding=1;treeMoving=1;fillColor=#d80073;strokeColor=#A50040;fontColor=#ffffff;" vertex="1" parent="dNxyNK7c78bLwvsdeMH5-11">
            <mxGeometry x="270" y="370" width="180" height="80" as="geometry" />
          </mxCell>
        </UserObject>
        <UserObject label="TERTIARY CARE" name="Alison Donovan" position="System Admin" location="Office 3" email="me@example.com" placeholders="1" link="https://www.draw.io" id="Rqalgy3OQGHP9HRHZ3IH-24">
          <mxCell style="label;image=https://cdn3.iconfinder.com/data/icons/user-avatars-1/512/users-2-128.png;whiteSpace=wrap;html=1;rounded=0;glass=0;fillColor=#f8cecc;strokeColor=#b85450;" vertex="1" parent="dNxyNK7c78bLwvsdeMH5-11">
            <mxGeometry x="490" y="370" width="180" height="80" as="geometry" />
          </mxCell>
        </UserObject>
        <UserObject label="QUATERNARY CARE" name="Alison Donovan" position="System Admin" location="Office 3" email="me@example.com" placeholders="1" link="https://www.draw.io" id="Rqalgy3OQGHP9HRHZ3IH-25">
          <mxCell style="label;image=https://cdn3.iconfinder.com/data/icons/user-avatars-1/512/users-2-128.png;whiteSpace=wrap;html=1;rounded=0;glass=0;fillColor=#f8cecc;strokeColor=#b85450;" vertex="1" parent="dNxyNK7c78bLwvsdeMH5-11">
            <mxGeometry x="700" y="370" width="180" height="80" as="geometry" />
          </mxCell>
        </UserObject>
        <UserObject label="PREVENTIVE CARE" name="Alison Donovan" position="System Admin" location="Office 3" email="me@example.com" placeholders="1" link="https://www.draw.io" id="Rqalgy3OQGHP9HRHZ3IH-26">
          <mxCell style="label;image=https://cdn3.iconfinder.com/data/icons/user-avatars-1/512/users-2-128.png;whiteSpace=wrap;html=1;rounded=0;glass=0;fillColor=#f8cecc;strokeColor=#b85450;" vertex="1" parent="dNxyNK7c78bLwvsdeMH5-11">
            <mxGeometry x="910" y="370" width="180" height="80" as="geometry" />
          </mxCell>
        </UserObject>
        <mxCell id="Rqalgy3OQGHP9HRHZ3IH-27" value="" style="endArrow=blockThin;endFill=1;fontSize=11;edgeStyle=elbowEdgeStyle;elbow=vertical;rounded=0;" edge="1" parent="dNxyNK7c78bLwvsdeMH5-11">
          <mxGeometry relative="1" as="geometry">
            <mxPoint x="490" y="340" as="sourcePoint" />
            <mxPoint x="780" y="370" as="targetPoint" />
            <Array as="points">
              <mxPoint x="1000" y="340" />
            </Array>
          </mxGeometry>
        </mxCell>
        <mxCell id="Rqalgy3OQGHP9HRHZ3IH-28" value="Text" style="edgeLabel;html=1;align=center;verticalAlign=middle;resizable=0;points=[];" vertex="1" connectable="0" parent="Rqalgy3OQGHP9HRHZ3IH-27">
          <mxGeometry x="-0.3385" y="2" relative="1" as="geometry">
            <mxPoint as="offset" />
          </mxGeometry>
        </mxCell>
        <mxCell id="Rqalgy3OQGHP9HRHZ3IH-29" value="" style="endArrow=blockThin;endFill=1;fontSize=11;edgeStyle=elbowEdgeStyle;elbow=vertical;rounded=0;entryX=0.339;entryY=0.013;entryDx=0;entryDy=0;entryPerimeter=0;" edge="1" parent="dNxyNK7c78bLwvsdeMH5-11" target="Rqalgy3OQGHP9HRHZ3IH-24">
          <mxGeometry relative="1" as="geometry">
            <mxPoint x="690" y="320" as="sourcePoint" />
            <mxPoint x="370" y="380" as="targetPoint" />
            <Array as="points">
              <mxPoint x="630" y="340" />
            </Array>
          </mxGeometry>
        </mxCell>
        <mxCell id="Rqalgy3OQGHP9HRHZ3IH-30" value="Text" style="edgeLabel;html=1;align=center;verticalAlign=middle;resizable=0;points=[];" vertex="1" connectable="0" parent="Rqalgy3OQGHP9HRHZ3IH-29">
          <mxGeometry x="-0.3385" y="2" relative="1" as="geometry">
            <mxPoint as="offset" />
          </mxGeometry>
        </mxCell>
        <mxCell id="Rqalgy3OQGHP9HRHZ3IH-31" value="" style="endArrow=blockThin;endFill=1;fontSize=11;edgeStyle=elbowEdgeStyle;elbow=vertical;rounded=0;entryX=0.5;entryY=0;entryDx=0;entryDy=0;exitX=0.391;exitY=1.002;exitDx=0;exitDy=0;exitPerimeter=0;" edge="1" parent="dNxyNK7c78bLwvsdeMH5-11" source="dNxyNK7c78bLwvsdeMH5-16">
          <mxGeometry relative="1" as="geometry">
            <mxPoint x="690" y="310" as="sourcePoint" />
            <mxPoint x="990" y="370" as="targetPoint" />
            <Array as="points">
              <mxPoint x="840" y="340" />
              <mxPoint x="840" y="340" />
            </Array>
          </mxGeometry>
        </mxCell>
        <mxCell id="Rqalgy3OQGHP9HRHZ3IH-32" value="Text" style="edgeLabel;html=1;align=center;verticalAlign=middle;resizable=0;points=[];" vertex="1" connectable="0" parent="Rqalgy3OQGHP9HRHZ3IH-31">
          <mxGeometry x="-0.3385" y="2" relative="1" as="geometry">
            <mxPoint as="offset" />
          </mxGeometry>
        </mxCell>
        <mxCell id="Rqalgy3OQGHP9HRHZ3IH-43" value="" style="endArrow=blockThin;endFill=1;fontSize=11;edgeStyle=elbowEdgeStyle;elbow=vertical;rounded=0;entryX=0.5;entryY=0;entryDx=0;entryDy=0;" edge="1" parent="dNxyNK7c78bLwvsdeMH5-11" target="dNxyNK7c78bLwvsdeMH5-18">
          <mxGeometry relative="1" as="geometry">
            <mxPoint x="930" y="150" as="sourcePoint" />
            <mxPoint x="930" y="168" as="targetPoint" />
            <Array as="points" />
          </mxGeometry>
        </mxCell>
        <mxCell id="Rqalgy3OQGHP9HRHZ3IH-44" value="Text" style="edgeLabel;html=1;align=center;verticalAlign=middle;resizable=0;points=[];" vertex="1" connectable="0" parent="Rqalgy3OQGHP9HRHZ3IH-43">
          <mxGeometry x="-0.3385" y="2" relative="1" as="geometry">
            <mxPoint as="offset" />
          </mxGeometry>
        </mxCell>
        <mxCell id="Rqalgy3OQGHP9HRHZ3IH-45" value="" style="endArrow=blockThin;endFill=1;fontSize=11;edgeStyle=elbowEdgeStyle;elbow=vertical;rounded=0;entryX=0.5;entryY=0;entryDx=0;entryDy=0;" edge="1" parent="dNxyNK7c78bLwvsdeMH5-11" target="Rqalgy3OQGHP9HRHZ3IH-3">
          <mxGeometry relative="1" as="geometry">
            <mxPoint x="720" y="150" as="sourcePoint" />
            <mxPoint x="1140" y="167" as="targetPoint" />
            <Array as="points">
              <mxPoint x="1000" y="150" />
            </Array>
          </mxGeometry>
        </mxCell>
        <mxCell id="Rqalgy3OQGHP9HRHZ3IH-46" value="Text" style="edgeLabel;html=1;align=center;verticalAlign=middle;resizable=0;points=[];" vertex="1" connectable="0" parent="Rqalgy3OQGHP9HRHZ3IH-45">
          <mxGeometry x="-0.3385" y="2" relative="1" as="geometry">
            <mxPoint as="offset" />
          </mxGeometry>
        </mxCell>
        <mxCell id="Rqalgy3OQGHP9HRHZ3IH-47" value="" style="endArrow=blockThin;endFill=1;fontSize=11;edgeStyle=elbowEdgeStyle;elbow=vertical;rounded=0;entryX=0.5;entryY=0;entryDx=0;entryDy=0;" edge="1" parent="dNxyNK7c78bLwvsdeMH5-11">
          <mxGeometry relative="1" as="geometry">
            <mxPoint x="915" y="150" as="sourcePoint" />
            <mxPoint x="1365" y="180" as="targetPoint" />
            <Array as="points">
              <mxPoint x="1225" y="150" />
            </Array>
          </mxGeometry>
        </mxCell>
        <mxCell id="Rqalgy3OQGHP9HRHZ3IH-48" value="Text" style="edgeLabel;html=1;align=center;verticalAlign=middle;resizable=0;points=[];" vertex="1" connectable="0" parent="Rqalgy3OQGHP9HRHZ3IH-47">
          <mxGeometry x="-0.3385" y="2" relative="1" as="geometry">
            <mxPoint as="offset" />
          </mxGeometry>
        </mxCell>
        <UserObject label="HOSPICE CARE" name="Alison Donovan" position="System Admin" location="Office 3" email="me@example.com" placeholders="1" link="https://www.draw.io" id="Rqalgy3OQGHP9HRHZ3IH-49">
          <mxCell style="label;image=https://cdn3.iconfinder.com/data/icons/user-avatars-1/512/users-2-128.png;whiteSpace=wrap;html=1;rounded=0;glass=0;fillColor=#f8cecc;strokeColor=#b85450;" vertex="1" parent="dNxyNK7c78bLwvsdeMH5-11">
            <mxGeometry x="1120" y="370" width="180" height="80" as="geometry" />
          </mxCell>
        </UserObject>
        <UserObject label="EMERGENCY CARE" name="Alison Donovan" position="System Admin" location="Office 3" email="me@example.com" placeholders="1" link="https://www.draw.io" id="Rqalgy3OQGHP9HRHZ3IH-50">
          <mxCell style="label;image=https://cdn3.iconfinder.com/data/icons/user-avatars-1/512/users-2-128.png;whiteSpace=wrap;html=1;rounded=0;glass=0;fillColor=#f8cecc;strokeColor=#b85450;" vertex="1" parent="dNxyNK7c78bLwvsdeMH5-11">
            <mxGeometry x="1330" y="370" width="180" height="80" as="geometry" />
          </mxCell>
        </UserObject>
        <mxCell id="Rqalgy3OQGHP9HRHZ3IH-53" value="" style="endArrow=blockThin;endFill=1;fontSize=11;edgeStyle=elbowEdgeStyle;elbow=vertical;rounded=0;entryX=0.5;entryY=0;entryDx=0;entryDy=0;" edge="1" parent="dNxyNK7c78bLwvsdeMH5-11">
          <mxGeometry relative="1" as="geometry">
            <mxPoint x="690" y="260" as="sourcePoint" />
            <mxPoint x="1410" y="370" as="targetPoint" />
            <Array as="points">
              <mxPoint x="1260" y="340" />
              <mxPoint x="1260" y="340" />
            </Array>
          </mxGeometry>
        </mxCell>
        <mxCell id="Rqalgy3OQGHP9HRHZ3IH-54" value="Text" style="edgeLabel;html=1;align=center;verticalAlign=middle;resizable=0;points=[];" vertex="1" connectable="0" parent="Rqalgy3OQGHP9HRHZ3IH-53">
          <mxGeometry x="-0.3385" y="2" relative="1" as="geometry">
            <mxPoint as="offset" />
          </mxGeometry>
        </mxCell>
        <mxCell id="Rqalgy3OQGHP9HRHZ3IH-51" value="" style="endArrow=blockThin;endFill=1;fontSize=11;edgeStyle=elbowEdgeStyle;elbow=vertical;rounded=0;" edge="1" parent="dNxyNK7c78bLwvsdeMH5-11">
          <mxGeometry relative="1" as="geometry">
            <mxPoint x="690" y="270" as="sourcePoint" />
            <mxPoint x="1210" y="360" as="targetPoint" />
            <Array as="points">
              <mxPoint x="1070" y="340" />
              <mxPoint x="1070" y="340" />
            </Array>
          </mxGeometry>
        </mxCell>
        <mxCell id="Rqalgy3OQGHP9HRHZ3IH-52" value="Text" style="edgeLabel;html=1;align=center;verticalAlign=middle;resizable=0;points=[];" vertex="1" connectable="0" parent="Rqalgy3OQGHP9HRHZ3IH-51">
          <mxGeometry x="-0.3385" y="2" relative="1" as="geometry">
            <mxPoint as="offset" />
          </mxGeometry>
        </mxCell>
        <mxCell id="Rqalgy3OQGHP9HRHZ3IH-56" value="" style="endArrow=blockThin;endFill=1;fontSize=11;edgeStyle=elbowEdgeStyle;elbow=vertical;rounded=0;" edge="1" parent="dNxyNK7c78bLwvsdeMH5-11" target="Rqalgy3OQGHP9HRHZ3IH-57">
          <mxGeometry relative="1" as="geometry">
            <mxPoint x="750" y="504.52" as="sourcePoint" />
          </mxGeometry>
        </mxCell>
        <UserObject label="PROVIDERS" name="Edward Morrison" position="Brand Manager" location="Office 2" email="me@example.com" placeholders="1" link="https://www.draw.io" id="Rqalgy3OQGHP9HRHZ3IH-57">
          <mxCell style="label;image=https://cdn3.iconfinder.com/data/icons/user-avatars-1/512/users-10-3-128.png;whiteSpace=wrap;html=1;rounded=0;glass=0;treeFolding=1;treeMoving=1;fillColor=#f8cecc;strokeColor=#b85450;" vertex="1" parent="dNxyNK7c78bLwvsdeMH5-11">
            <mxGeometry x="100" y="564.52" width="180" height="80" as="geometry" />
          </mxCell>
        </UserObject>
        <mxCell id="Rqalgy3OQGHP9HRHZ3IH-58" value="" style="endArrow=blockThin;endFill=1;fontSize=11;edgeStyle=elbowEdgeStyle;elbow=vertical;rounded=0;" edge="1" parent="dNxyNK7c78bLwvsdeMH5-11" target="Rqalgy3OQGHP9HRHZ3IH-60">
          <mxGeometry relative="1" as="geometry">
            <mxPoint x="760" y="534.52" as="sourcePoint" />
            <Array as="points">
              <mxPoint x="630" y="534.52" />
            </Array>
          </mxGeometry>
        </mxCell>
        <mxCell id="Rqalgy3OQGHP9HRHZ3IH-59" value="Text" style="edgeLabel;html=1;align=center;verticalAlign=middle;resizable=0;points=[];" vertex="1" connectable="0" parent="Rqalgy3OQGHP9HRHZ3IH-58">
          <mxGeometry x="-0.3385" y="2" relative="1" as="geometry">
            <mxPoint as="offset" />
          </mxGeometry>
        </mxCell>
        <UserObject label="PATIENT DEMOGRAPHICS" name="Evan Valet" position="HR Director" location="Office 4" email="me@example.com" placeholders="1" link="https://www.draw.io" id="Rqalgy3OQGHP9HRHZ3IH-60">
          <mxCell style="label;image=https://cdn3.iconfinder.com/data/icons/user-avatars-1/512/users-9-2-128.png;whiteSpace=wrap;html=1;rounded=0;glass=0;treeFolding=1;treeMoving=1;fillColor=#f8cecc;strokeColor=#b85450;" vertex="1" parent="dNxyNK7c78bLwvsdeMH5-11">
            <mxGeometry x="320" y="564.52" width="180" height="80" as="geometry" />
          </mxCell>
        </UserObject>
        <UserObject label="PRESCRIPTIONS" name="Alison Donovan" position="System Admin" location="Office 3" email="me@example.com" placeholders="1" link="https://www.draw.io" id="Rqalgy3OQGHP9HRHZ3IH-61">
          <mxCell style="label;image=https://cdn3.iconfinder.com/data/icons/user-avatars-1/512/users-2-128.png;whiteSpace=wrap;html=1;rounded=0;glass=0;fillColor=#f8cecc;strokeColor=#b85450;" vertex="1" parent="dNxyNK7c78bLwvsdeMH5-11">
            <mxGeometry x="540" y="564.52" width="180" height="80" as="geometry" />
          </mxCell>
        </UserObject>
        <UserObject label="CLAIMS/PAYERS" name="Alison Donovan" position="System Admin" location="Office 3" email="me@example.com" placeholders="1" link="https://www.draw.io" id="Rqalgy3OQGHP9HRHZ3IH-62">
          <mxCell style="label;image=https://cdn3.iconfinder.com/data/icons/user-avatars-1/512/users-2-128.png;whiteSpace=wrap;html=1;rounded=0;glass=0;fillColor=#d80073;strokeColor=#A50040;fontColor=#ffffff;" vertex="1" parent="dNxyNK7c78bLwvsdeMH5-11">
            <mxGeometry x="750" y="564.52" width="180" height="80" as="geometry" />
          </mxCell>
        </UserObject>
        <UserObject label="DISEASE" name="Alison Donovan" position="System Admin" location="Office 3" email="me@example.com" placeholders="1" link="https://www.draw.io" id="Rqalgy3OQGHP9HRHZ3IH-63">
          <mxCell style="label;image=https://cdn3.iconfinder.com/data/icons/user-avatars-1/512/users-2-128.png;whiteSpace=wrap;html=1;rounded=0;glass=0;fillColor=#f8cecc;strokeColor=#b85450;" vertex="1" parent="dNxyNK7c78bLwvsdeMH5-11">
            <mxGeometry x="960" y="564.52" width="180" height="80" as="geometry" />
          </mxCell>
        </UserObject>
        <mxCell id="Rqalgy3OQGHP9HRHZ3IH-64" value="" style="endArrow=blockThin;endFill=1;fontSize=11;edgeStyle=elbowEdgeStyle;elbow=vertical;rounded=0;" edge="1" parent="dNxyNK7c78bLwvsdeMH5-11">
          <mxGeometry relative="1" as="geometry">
            <mxPoint x="540" y="534.52" as="sourcePoint" />
            <mxPoint x="830" y="564.52" as="targetPoint" />
            <Array as="points">
              <mxPoint x="1050" y="534.52" />
            </Array>
          </mxGeometry>
        </mxCell>
        <mxCell id="Rqalgy3OQGHP9HRHZ3IH-65" value="Text" style="edgeLabel;html=1;align=center;verticalAlign=middle;resizable=0;points=[];" vertex="1" connectable="0" parent="Rqalgy3OQGHP9HRHZ3IH-64">
          <mxGeometry x="-0.3385" y="2" relative="1" as="geometry">
            <mxPoint as="offset" />
          </mxGeometry>
        </mxCell>
        <mxCell id="Rqalgy3OQGHP9HRHZ3IH-66" value="" style="endArrow=blockThin;endFill=1;fontSize=11;edgeStyle=elbowEdgeStyle;elbow=vertical;rounded=0;entryX=0.339;entryY=0.013;entryDx=0;entryDy=0;entryPerimeter=0;" edge="1" parent="dNxyNK7c78bLwvsdeMH5-11">
          <mxGeometry relative="1" as="geometry">
            <mxPoint x="370" y="448.96" as="sourcePoint" />
            <mxPoint x="581.0200000000002" y="564.52" as="targetPoint" />
            <Array as="points">
              <mxPoint x="660" y="533.48" />
            </Array>
          </mxGeometry>
        </mxCell>
        <mxCell id="Rqalgy3OQGHP9HRHZ3IH-67" value="Text" style="edgeLabel;html=1;align=center;verticalAlign=middle;resizable=0;points=[];" vertex="1" connectable="0" parent="Rqalgy3OQGHP9HRHZ3IH-66">
          <mxGeometry x="-0.3385" y="2" relative="1" as="geometry">
            <mxPoint as="offset" />
          </mxGeometry>
        </mxCell>
        <mxCell id="Rqalgy3OQGHP9HRHZ3IH-68" value="Text" style="edgeLabel;html=1;align=center;verticalAlign=middle;resizable=0;points=[];" vertex="1" connectable="0" parent="dNxyNK7c78bLwvsdeMH5-11">
          <mxGeometry x="796.0955555555556" y="532.5199999999995" as="geometry" />
        </mxCell>
        <UserObject label="R&amp;amp;D" name="Alison Donovan" position="System Admin" location="Office 3" email="me@example.com" placeholders="1" link="https://www.draw.io" id="Rqalgy3OQGHP9HRHZ3IH-69">
          <mxCell style="label;image=https://cdn3.iconfinder.com/data/icons/user-avatars-1/512/users-2-128.png;whiteSpace=wrap;html=1;rounded=0;glass=0;fillColor=#f8cecc;strokeColor=#b85450;" vertex="1" parent="dNxyNK7c78bLwvsdeMH5-11">
            <mxGeometry x="1170" y="564.52" width="180" height="80" as="geometry" />
          </mxCell>
        </UserObject>
        <mxCell id="Rqalgy3OQGHP9HRHZ3IH-71" value="Text" style="edgeLabel;html=1;align=center;verticalAlign=middle;resizable=0;points=[];" vertex="1" connectable="0" parent="dNxyNK7c78bLwvsdeMH5-11">
          <mxGeometry x="935.5555555555557" y="532.5199999999995" as="geometry" />
        </mxCell>
        <mxCell id="Rqalgy3OQGHP9HRHZ3IH-72" value="Text" style="edgeLabel;html=1;align=center;verticalAlign=middle;resizable=0;points=[];" vertex="1" connectable="0" parent="dNxyNK7c78bLwvsdeMH5-11">
          <mxGeometry x="872.2222222222226" y="532.5199999999995" as="geometry" />
        </mxCell>
        <mxCell id="Rqalgy3OQGHP9HRHZ3IH-126" value="" style="endArrow=blockThin;endFill=1;fontSize=11;edgeStyle=elbowEdgeStyle;elbow=vertical;rounded=0;" edge="1" parent="dNxyNK7c78bLwvsdeMH5-11">
          <mxGeometry relative="1" as="geometry">
            <mxPoint x="760" y="534.52" as="sourcePoint" />
            <mxPoint x="1050" y="564.52" as="targetPoint" />
            <Array as="points">
              <mxPoint x="1270" y="534.52" />
            </Array>
          </mxGeometry>
        </mxCell>
        <mxCell id="Rqalgy3OQGHP9HRHZ3IH-127" value="Text" style="edgeLabel;html=1;align=center;verticalAlign=middle;resizable=0;points=[];" vertex="1" connectable="0" parent="Rqalgy3OQGHP9HRHZ3IH-126">
          <mxGeometry x="-0.3385" y="2" relative="1" as="geometry">
            <mxPoint as="offset" />
          </mxGeometry>
        </mxCell>
        <mxCell id="Rqalgy3OQGHP9HRHZ3IH-128" value="" style="endArrow=blockThin;endFill=1;fontSize=11;edgeStyle=elbowEdgeStyle;elbow=vertical;rounded=0;" edge="1" parent="dNxyNK7c78bLwvsdeMH5-11">
          <mxGeometry relative="1" as="geometry">
            <mxPoint x="950" y="534.52" as="sourcePoint" />
            <mxPoint x="1240" y="564.52" as="targetPoint" />
            <Array as="points">
              <mxPoint x="1460" y="534.52" />
            </Array>
          </mxGeometry>
        </mxCell>
        <mxCell id="Rqalgy3OQGHP9HRHZ3IH-129" value="Text" style="edgeLabel;html=1;align=center;verticalAlign=middle;resizable=0;points=[];" vertex="1" connectable="0" parent="Rqalgy3OQGHP9HRHZ3IH-128">
          <mxGeometry x="-0.3385" y="2" relative="1" as="geometry">
            <mxPoint as="offset" />
          </mxGeometry>
        </mxCell>
        <UserObject label="CLAIM MANAGEMENT" name="Alison Donovan" position="System Admin" location="Office 3" email="me@example.com" placeholders="1" link="https://www.draw.io" id="Rqalgy3OQGHP9HRHZ3IH-130">
          <mxCell style="label;image=https://cdn3.iconfinder.com/data/icons/user-avatars-1/512/users-2-128.png;whiteSpace=wrap;html=1;rounded=0;glass=0;fillColor=#f8cecc;strokeColor=#b85450;" vertex="1" parent="dNxyNK7c78bLwvsdeMH5-11">
            <mxGeometry x="580" y="732" width="180" height="80" as="geometry" />
          </mxCell>
        </UserObject>
        <UserObject label="INSURANCE&lt;div&gt;&amp;nbsp;DETAILS&lt;/div&gt;" name="Alison Donovan" position="System Admin" location="Office 3" email="me@example.com" placeholders="1" link="https://www.draw.io" id="Rqalgy3OQGHP9HRHZ3IH-131">
          <mxCell style="label;image=https://cdn3.iconfinder.com/data/icons/user-avatars-1/512/users-2-128.png;whiteSpace=wrap;html=1;rounded=0;glass=0;fillColor=#f8cecc;strokeColor=#b85450;" vertex="1" parent="dNxyNK7c78bLwvsdeMH5-11">
            <mxGeometry x="790" y="732" width="180" height="80" as="geometry" />
          </mxCell>
        </UserObject>
        <UserObject label="PAYMENT DETAILS" name="Alison Donovan" position="System Admin" location="Office 3" email="me@example.com" placeholders="1" link="https://www.draw.io" id="Rqalgy3OQGHP9HRHZ3IH-132">
          <mxCell style="label;image=https://cdn3.iconfinder.com/data/icons/user-avatars-1/512/users-2-128.png;whiteSpace=wrap;html=1;rounded=0;glass=0;fillColor=#f8cecc;strokeColor=#b85450;" vertex="1" parent="dNxyNK7c78bLwvsdeMH5-11">
            <mxGeometry x="1010" y="732" width="180" height="80" as="geometry" />
          </mxCell>
        </UserObject>
        <mxCell id="Rqalgy3OQGHP9HRHZ3IH-135" value="" style="endArrow=blockThin;endFill=1;fontSize=11;edgeStyle=elbowEdgeStyle;elbow=vertical;rounded=0;entryX=0.5;entryY=0;entryDx=0;entryDy=0;" edge="1" parent="dNxyNK7c78bLwvsdeMH5-11" target="Rqalgy3OQGHP9HRHZ3IH-130">
          <mxGeometry relative="1" as="geometry">
            <mxPoint x="670" y="702" as="sourcePoint" />
            <mxPoint x="670" y="720" as="targetPoint" />
            <Array as="points" />
          </mxGeometry>
        </mxCell>
        <mxCell id="Rqalgy3OQGHP9HRHZ3IH-136" value="Text" style="edgeLabel;html=1;align=center;verticalAlign=middle;resizable=0;points=[];" vertex="1" connectable="0" parent="Rqalgy3OQGHP9HRHZ3IH-135">
          <mxGeometry x="-0.3385" y="2" relative="1" as="geometry">
            <mxPoint as="offset" />
          </mxGeometry>
        </mxCell>
        <mxCell id="Rqalgy3OQGHP9HRHZ3IH-137" value="" style="endArrow=blockThin;endFill=1;fontSize=11;edgeStyle=elbowEdgeStyle;elbow=vertical;rounded=0;entryX=0.5;entryY=0;entryDx=0;entryDy=0;" edge="1" parent="dNxyNK7c78bLwvsdeMH5-11" target="Rqalgy3OQGHP9HRHZ3IH-131">
          <mxGeometry relative="1" as="geometry">
            <mxPoint x="1100" y="702" as="sourcePoint" />
            <mxPoint x="880" y="719" as="targetPoint" />
            <Array as="points">
              <mxPoint x="740" y="702" />
            </Array>
          </mxGeometry>
        </mxCell>
        <mxCell id="Rqalgy3OQGHP9HRHZ3IH-138" value="Text" style="edgeLabel;html=1;align=center;verticalAlign=middle;resizable=0;points=[];" vertex="1" connectable="0" parent="Rqalgy3OQGHP9HRHZ3IH-137">
          <mxGeometry x="-0.3385" y="2" relative="1" as="geometry">
            <mxPoint as="offset" />
          </mxGeometry>
        </mxCell>
        <mxCell id="Rqalgy3OQGHP9HRHZ3IH-139" value="Text" style="edgeLabel;html=1;align=center;verticalAlign=middle;resizable=0;points=[];" vertex="1" connectable="0" parent="dNxyNK7c78bLwvsdeMH5-11">
          <mxGeometry x="813.6666666666665" y="700" as="geometry" />
        </mxCell>
        <mxCell id="Rqalgy3OQGHP9HRHZ3IH-140" value="" style="endArrow=blockThin;endFill=1;fontSize=11;edgeStyle=elbowEdgeStyle;elbow=vertical;rounded=0;" edge="1" parent="dNxyNK7c78bLwvsdeMH5-11" target="Rqalgy3OQGHP9HRHZ3IH-132">
          <mxGeometry relative="1" as="geometry">
            <mxPoint x="850" y="640" as="sourcePoint" />
            <mxPoint x="1061.0200000000002" y="755.56" as="targetPoint" />
            <Array as="points">
              <mxPoint x="970" y="700" />
            </Array>
          </mxGeometry>
        </mxCell>
        <mxCell id="Rqalgy3OQGHP9HRHZ3IH-141" value="Text" style="edgeLabel;html=1;align=center;verticalAlign=middle;resizable=0;points=[];" vertex="1" connectable="0" parent="Rqalgy3OQGHP9HRHZ3IH-140">
          <mxGeometry x="-0.3385" y="2" relative="1" as="geometry">
            <mxPoint as="offset" />
          </mxGeometry>
        </mxCell>
        <mxCell id="Rqalgy3OQGHP9HRHZ3IH-142" value="" style="endArrow=blockThin;endFill=1;fontSize=11;edgeStyle=elbowEdgeStyle;elbow=vertical;rounded=0;" edge="1" parent="dNxyNK7c78bLwvsdeMH5-11">
          <mxGeometry relative="1" as="geometry">
            <mxPoint x="850" y="672" as="sourcePoint" />
            <mxPoint x="670" y="732" as="targetPoint" />
          </mxGeometry>
        </mxCell>
      </root>
    </mxGraphModel>
  </diagram>
</mxfile>
